<svg xmlns="http://www.w3.org/2000/svg" version="1.1" xmlns:xlink="http://www.w3.org/1999/xlink" xmlns:svgjs="http://svgjs.dev/svgjs" width="1440" height="560" preserveAspectRatio="none" viewBox="0 0 1440 560" style=""><g mask="url(&quot;#SvgjsMask1300&quot;)" fill="none"><rect width="1440" height="560" x="0" y="0" fill="rgba(250, 249, 246, 1)" style=""></rect><path d="M -207.84481284581608,144 C -135.84,177.2 8.16,295.2 152.15518715418392,310 C 296.16,324.8 368.16,220.4 512.155187154184,218 C 656.16,215.6 728.16,291 872.155187154184,298 C 1016.16,305 1088.16,248.6 1232.155187154184,253 C 1376.16,257.4 1550.59,322.2 1592.155187154184,320 C 1633.72,317.8 1470.43,257.6 1440,242" stroke="rgba(239, 204, 121, 1)" stroke-width="2"></path><path d="M -224.16802906882572,296 C -152.17,285.4 -8.17,226.4 135.83197093117428,243 C 279.83,259.6 351.83,383.2 495.8319709311743,379 C 639.83,374.8 711.83,214.8 855.8319709311743,222 C 999.83,229.2 1071.83,425 1215.8319709311743,415 C 1359.83,405 1531,178.6 1575.8319709311743,172 C 1620.67,165.4 1467.17,340 1440,382" stroke="rgba(239, 204, 121, 1)" stroke-width="2"></path><path d="M -419.95933780496387,331 C -347.96,290 -203.96,131.4 -59.95933780496388,126 C 84.04,120.6 156.04,281.4 300.04066219503613,304 C 444.04,326.6 516.04,221.4 660.0406621950361,239 C 804.04,256.6 876.04,415.8 1020.0406621950361,392 C 1164.04,368.2 1296.05,119.8 1380.040662195036,120 C 1464.03,120.2 1428.01,338.4 1440,393" stroke="rgba(239, 204, 121, 1)" stroke-width="2"></path><path d="M -580.0590405392729,226 C -508.06,266.4 -364.06,431.2 -220.0590405392729,428 C -76.06,424.8 -4.06,232 139.9409594607271,210 C 283.94,188 355.94,309 499.9409594607271,318 C 643.94,327 715.94,261 859.9409594607271,255 C 1003.94,249 1103.93,289.4 1219.940959460727,288 C 1335.95,286.6 1395.99,256 1440,248" stroke="rgba(239, 204, 121, 1)" stroke-width="2"></path></g><defs><mask id="SvgjsMask1300"><rect width="1440" height="560" fill="#ffffff"></rect></mask></defs></svg>